<?xml version="1.0" encoding="utf-8"?>
<!-- Generator: Adobe Illustrator 16.0.0, SVG Export Plug-In . SVG Version: 6.00 Build 0)  -->
<!DOCTYPE svg PUBLIC "-//W3C//DTD SVG 1.1//EN" "http://www.w3.org/Graphics/SVG/1.1/DTD/svg11.dtd">
<svg version="1.1" id="Layer_1" xmlns="http://www.w3.org/2000/svg" xmlns:xlink="http://www.w3.org/1999/xlink" x="0px" y="0px"
	 width="226.77px" height="141.73px" viewBox="0 0 226.77 141.73" enable-background="new 0 0 226.77 141.73" xml:space="preserve">
<g>
	<path fill-rule="evenodd" clip-rule="evenodd" d="M87.317,3.686c38.246,0,76.492,0,114.737,0c0.062,0.029,0.119,0.075,0.185,0.086
		c1.56,0.276,2.831,1.072,3.838,2.262c2.008,2.369,2.805,5.202,2.866,8.229c0.084,4.027,0.037,8.057,0.029,12.085
		c-0.001,0.388,0.114,0.512,0.499,0.607c6.646,1.644,10.855,5.755,12.494,12.431c0.193,0.787,0.268,1.603,0.397,2.405
		c0,0.628,0,1.255,0,1.884c-0.028,0.06-0.076,0.118-0.081,0.18c-0.218,3.066-1.253,5.835-3.049,8.32
		c-0.189,0.262-0.116,0.416,0.043,0.634c1.351,1.834,2.274,3.865,2.714,6.103c0.158,0.812,0.25,1.637,0.373,2.456
		c0,0.558,0,1.116,0,1.674c-0.03,0.112-0.079,0.223-0.087,0.335c-0.186,2.824-1.072,5.405-2.659,7.746
		c-0.222,0.328-0.452,0.648-0.671,0.962c1.807,2.643,2.498,4.139,3.047,6.717c0.164,0.775,0.249,1.566,0.37,2.352
		c0,0.628,0,1.255,0,1.884c-0.031,0.111-0.084,0.22-0.091,0.331c-0.166,2.164-0.748,4.214-1.764,6.128
		c-0.422,0.794-0.924,1.544-1.403,2.333c1.409,1.861,2.417,3.927,2.896,6.23c0.147,0.71,0.243,1.432,0.362,2.147
		c0,0.732,0,1.465,0,2.196c-0.031,0.114-0.079,0.227-0.092,0.341c-0.765,6.763-4.351,11.377-10.632,13.918
		c-0.847,0.341-1.75,0.543-2.659,0.82c0,0.184,0,0.374,0,0.565c0,2.215,0.009,4.432-0.002,6.646c-0.012,2.821-0.543,5.517-2.1,7.923
		c-1.44,2.226-3.413,3.428-6.176,3.426c-37.406-0.025-74.812-0.021-112.216-0.007c-2.043,0.001-3.7-0.759-5.029-2.253
		c-1.953-2.195-2.744-4.867-2.926-7.724c-0.115-1.808-0.054-3.626-0.071-5.438c-0.002-0.205,0-0.409,0-0.508
		c-2.783,0-5.496,0-8.209,0c-6.228,0-12.457,0-18.685,0c-1.531,0-3.072,0.101-4.561-0.394c-0.081-0.025-0.172-0.025-0.259-0.03
		c-2.693-0.189-5.184-1.04-7.512-2.368c-3.797-2.164-6.359-5.421-8.103-9.365c-0.179-0.403-0.386-0.52-0.81-0.519
		c-6.56,0.013-13.12,0.007-19.68,0.01c-1.729,0-3.246-0.573-4.549-1.699c-1.796-1.554-2.688-3.604-3.161-5.872
		c-0.193-0.935-0.353-1.873-0.527-2.81c0-16.786,0-33.571,0-50.355c0.07-0.317,0.162-0.63,0.206-0.95
		c0.205-1.508,0.524-2.984,1.149-4.381c1.335-2.982,3.535-4.796,6.883-4.96c1.356-0.065,2.719,0.013,4.078,0.014
		c5.738,0.003,11.476-0.008,17.213,0.015c0.553,0.002,0.81-0.167,1.034-0.668c1.894-4.215,4.813-7.481,9.016-9.502
		c2.539-1.22,5.192-1.915,8.054-1.9c9.457,0.047,18.915,0.018,28.422,0.018c0-0.092,0-0.298,0-0.503c0-3-0.012-6,0.004-8.999
		c0.011-2.2,0.385-4.334,1.308-6.349c0.874-1.907,2.103-3.493,4.083-4.359C86.327,3.981,86.831,3.851,87.317,3.686z M80.262,34.237
		c-0.178-1.017-0.394-1.906-0.902-2.698c-0.271-0.422-0.636-0.628-1.175-0.627c-8.967,0.014-17.935,0.009-26.902,0.011
		c-0.208,0-0.417,0.017-0.622,0.052c-4.72,0.788-7.98,3.423-9.868,7.796c-0.531,1.229-1.081,2.45-1.589,3.688
		c-0.167,0.405-0.405,0.512-0.827,0.511c-8.322-0.018-16.644-0.008-24.965-0.044c-0.881-0.003-1.363,0.345-1.668,1.106
		c-0.544,1.364-0.782,2.794-0.784,4.243c-0.016,15.527-0.013,31.054-0.003,46.582c0,0.815,0.022,1.647,0.176,2.443
		c0.194,1,0.499,1.982,0.827,2.949c0.168,0.495,0.583,0.691,1.159,0.688c4.292-0.025,8.583-0.014,12.875-0.014
		c3.682,0,7.363,0.007,11.044-0.01c0.402-0.002,0.574,0.115,0.691,0.501c0.274,0.898,0.603,1.78,0.915,2.667
		c0.87,2.477,2.193,4.649,4.184,6.402c2.64,2.324,5.923,2.979,9.198,3.047c8.65,0.178,17.306,0.048,25.959,0.078
		c0.895,0.002,1.41-0.386,1.661-1.128c0.288-0.851,0.573-1.738,0.638-2.627c0.129-1.771,0.139-3.552,0.141-5.329
		c0.01-11.079,0.006-22.156,0.004-33.235c-0.001-0.185-0.017-0.368-0.029-0.587c-0.261,0-0.468,0-0.674,0
		c-4.885,0-9.77,0.004-14.654-0.002c-2.034-0.002-3.521-1.757-3.211-3.769c0.258-1.68,1.604-2.753,3.461-2.753
		c18.929-0.001,37.859,0,56.787-0.002c0.976,0,1.953-0.019,2.93-0.035c1.908-0.031,3.733-0.372,5.414-1.346
		c4.426-2.562,7.002-8.295,5.283-13.764c-1.389-4.418-4.272-7.315-8.924-8.105c-1.598-0.272-3.266-0.158-4.903-0.159
		c-15.928-0.01-31.856-0.005-47.785-0.006c-0.227,0-0.454,0.001-0.68-0.011c-1.793-0.091-3.144-1.561-3.094-3.361
		c0.048-1.772,1.459-3.146,3.245-3.15c2.006-0.006,4.013-0.002,6.019-0.002C79.799,34.237,79.988,34.237,80.262,34.237z
		 M140.851,44.112c0.137,0.311,0.222,0.518,0.313,0.72c0.964,2.121,1.511,4.363,1.632,6.668c0.175,3.385-0.509,6.634-2.112,9.639
		c-2.329,4.36-5.791,7.407-10.565,8.862c-1.971,0.602-4.011,0.699-6.056,0.699c-12.126,0.004-24.251,0.002-36.377,0.002
		c-0.219,0-0.438,0-0.656,0c0,15.831,0,31.582,0,47.345c38.482,0,76.938,0,115.428,0c0-0.289,0-0.531,0-0.775
		c0-33.953,0-67.905,0-101.857c0-0.122,0.004-0.245,0-0.366c-0.06-1.473-0.238-2.916-0.972-4.237
		c-0.236-0.427-0.533-0.593-1.04-0.593c-37.146,0.012-74.291,0.012-111.437-0.002c-0.536,0-0.836,0.188-1.07,0.63
		c-0.679,1.28-0.93,2.659-0.932,4.085c-0.008,6.229-0.003,12.458-0.003,18.687c0,0.187,0,0.374,0,0.586c0.792,0,1.53,0,2.321,0
		c0-0.237,0-0.443,0-0.649c0-5.548-0.002-11.096,0.001-16.645c0.001-1.876,1.406-3.296,3.261-3.296
		c34.754-0.002,69.51-0.001,104.266,0.002c0.259,0,0.523,0.018,0.774,0.081c1.567,0.395,2.489,1.646,2.489,3.367
		c0.002,7.834-0.024,15.668,0.018,23.501c0.011,2.229-1.673,3.572-3.557,3.568c-18.32-0.037-36.641-0.022-54.96-0.022
		C141.396,44.112,141.174,44.112,140.851,44.112z M95.911,34.237c0.274,0,0.499,0,0.722,0c8.479,0,16.959,0,25.439,0.001
		c0.871,0,1.745,0.044,2.614,0.014c3.772-0.129,7.188,0.928,10.304,3.029c0.267,0.179,0.635,0.293,0.955,0.293
		c18.983,0.014,37.966,0.012,56.948,0.012c0.22,0,0.438,0,0.655,0c0-5.853,0-11.621,0-17.417c-32.556,0-65.084,0-97.638,0
		C95.911,24.855,95.911,29.508,95.911,34.237z M87.024,123.356c0,0.74-0.04,1.438,0.009,2.13c0.083,1.188,0.33,2.343,0.915,3.405
		c0.24,0.438,0.533,0.625,1.07,0.625c37.144-0.016,74.287-0.016,111.43-0.002c0.513,0,0.804-0.176,1.033-0.598
		c0.952-1.737,1.004-3.621,0.967-5.561C163.958,123.356,125.514,123.356,87.024,123.356z M209.004,110.656
		c0.261-0.092,0.457-0.153,0.649-0.229c6.306-2.537,8.553-10.915,2.944-16.071c-1.744-1.603-1.698-3.667,0.06-5.256
		c1.916-1.73,2.97-3.904,3.1-6.475c0.163-3.194-1.022-5.838-3.387-7.997c-0.467-0.427-0.876-1.023-1.07-1.62
		c-0.427-1.309-0.047-2.479,0.987-3.404c2.858-2.559,4.024-5.705,3.263-9.496c-0.422-2.096-1.604-3.754-3.141-5.193
		c-1.375-1.291-1.438-3.312-0.164-4.69c0.225-0.243,0.455-0.481,0.688-0.716c4.993-5.045,3.149-13.333-3.513-15.788
		c-0.125-0.045-0.258-0.07-0.417-0.114C209.004,59.301,209.004,84.942,209.004,110.656z"/>
	<path fill-rule="evenodd" clip-rule="evenodd" d="M114.764,52.132c0-2.669,0-5.338,0-8.008c0.001-1.546,0.88-2.418,2.442-2.419
		c2.023-0.001,4.047,0,6.072,0c6.081,0,10.777,4.896,10.529,10.979c-0.223,5.473-4.851,9.92-10.324,9.922c-2.06,0-4.117,0-6.176,0
		c-1.718,0-2.544-0.818-2.544-2.519C114.764,57.437,114.764,54.785,114.764,52.132z M119.177,45.984c0,4.183,0,8.197,0,12.244
		c1.427,0,2.818,0,4.211,0c3.011-0.002,5.636-2.278,6.008-5.208c0.394-3.093-1.474-6.085-4.471-6.68
		C123.073,45.972,121.124,46.088,119.177,45.984z"/>
	<path fill-rule="evenodd" clip-rule="evenodd" d="M114.484,112.56c-7.238,0-14.478,0-21.718,0c-2.063,0-3.441-1.378-3.441-3.441
		c0-10.326,0-20.653,0-30.979c0-2.089,1.38-3.474,3.476-3.474c14.443-0.002,28.888-0.002,43.332,0c2.119,0,3.509,1.382,3.509,3.505
		c0.004,10.292,0.003,20.584,0,30.876c0,2.157-1.379,3.514-3.543,3.514C128.894,112.56,121.689,112.56,114.484,112.56z
		 M133.038,105.993c0-8.281,0-16.519,0-24.742c-12.401,0-24.759,0-37.118,0c0,8.27,0,16.494,0,24.742
		C108.301,105.993,120.647,105.993,133.038,105.993z"/>
	<path fill-rule="evenodd" clip-rule="evenodd" d="M170.816,87.958c-7.486,0-14.971,0.002-22.455-0.001
		c-2.007-0.001-3.459-1.316-3.518-3.167c-0.059-1.887,1.379-3.37,3.29-3.372c6.194-0.004,12.389-0.002,18.582-0.002
		c8.915,0,17.831-0.002,26.746,0.002c2.555,0.002,4.136,2.643,2.9,4.853c-0.566,1.014-1.464,1.561-2.621,1.67
		c-0.227,0.021-0.454,0.018-0.681,0.018C185.646,87.958,178.23,87.958,170.816,87.958z"/>
	<path fill-rule="evenodd" clip-rule="evenodd" d="M170.828,56.78c7.533,0,15.068-0.004,22.603,0.002
		c2.336,0.001,3.911,2.187,3.165,4.364c-0.449,1.312-1.674,2.175-3.131,2.191c-0.925,0.01-1.849,0.002-2.772,0.002
		c-14.127,0-28.252,0-42.38,0c-2.235,0-3.736-1.684-3.425-3.836c0.228-1.563,1.612-2.719,3.287-2.721
		c4.08-0.006,8.161-0.001,12.243-0.001C163.888,56.78,167.357,56.78,170.828,56.78z"/>
	<path fill-rule="evenodd" clip-rule="evenodd" d="M170.806,93.718c7.554,0,15.108-0.002,22.663,0
		c1.688,0.002,3.056,1.181,3.267,2.798c0.222,1.692-0.755,3.191-2.387,3.624c-0.331,0.088-0.688,0.114-1.033,0.114
		c-15.004,0.007-30.01,0.007-45.014,0.004c-1.716,0-3.065-1.018-3.392-2.542c-0.334-1.565,0.438-3.12,1.913-3.727
		c0.438-0.179,0.946-0.261,1.421-0.261C155.766,93.712,163.286,93.718,170.806,93.718z"/>
	<path fill-rule="evenodd" clip-rule="evenodd" d="M170.753,112.56c-7.555,0-15.109,0.003-22.664-0.002
		c-1.683,0-3.046-1.237-3.224-2.899c-0.18-1.672,0.877-3.184,2.499-3.549c0.321-0.072,0.659-0.088,0.988-0.088
		c14.971-0.005,29.939-0.005,44.91-0.004c1.599,0.001,2.776,0.759,3.299,2.102c0.477,1.228,0.155,2.654-0.811,3.558
		c-0.653,0.613-1.434,0.888-2.333,0.887C185.862,112.558,178.308,112.56,170.753,112.56z"/>
	<path fill-rule="evenodd" clip-rule="evenodd" d="M170.808,75.622c-7.572,0-15.145,0.002-22.717-0.001
		c-1.714-0.001-3.073-1.245-3.233-2.94c-0.161-1.706,0.976-3.221,2.659-3.532c0.204-0.038,0.416-0.049,0.624-0.049
		c15.11-0.002,30.219-0.003,45.33,0.002c1.314,0,2.327,0.583,2.93,1.759c0.599,1.168,0.517,2.338-0.239,3.411
		c-0.646,0.914-1.555,1.354-2.689,1.354C185.917,75.619,178.361,75.622,170.808,75.622z"/>
</g>
</svg>
